<?xml version="1.0" encoding="UTF-8"?>
<!-- Generated by Pixelmator Pro 2.4.5 -->
<svg width="16" height="16" viewBox="0 0 16 16" xmlns="http://www.w3.org/2000/svg" xmlns:xlink="http://www.w3.org/1999/xlink">
    <path id="Path" fill="#e0be69" fill-rule="evenodd" stroke="none" d="M 3.555339 14.666667 C 2.327935 14.666667 1.333333 13.672065 1.333333 12.444661 L 1.333333 3.555339 C 1.333333 2.327934 2.327935 1.333333 3.555339 1.333333 L 12.444661 1.333333 C 13.672066 1.333333 14.666667 2.327934 14.666667 3.555339 L 14.666667 12.444661 C 14.666667 13.672065 13.672066 14.666667 12.444661 14.666667 L 3.555339 14.666667 Z M 4.333333 9.333334 C 5.069712 9.333334 5.666667 8.736378 5.666667 8 C 5.666667 7.263621 5.069712 6.666667 4.333333 6.666667 C 3.596955 6.666667 3 7.263621 3 8 C 3 8.736378 3.596955 9.333334 4.333333 9.333334 Z M 8 9.333334 C 8.736378 9.333334 9.333333 8.736378 9.333333 8 C 9.333333 7.263622 8.736378 6.666667 8 6.666667 C 7.263622 6.666667 6.666667 7.263622 6.666667 8 C 6.666667 8.736378 7.263622 9.333334 8 9.333334 Z M 11.666667 9.333334 C 12.403045 9.333334 13 8.73638 13 8 C 13 7.263621 12.403045 6.666667 11.666667 6.666667 C 10.930287 6.666667 10.333333 7.263621 10.333333 8 C 10.333333 8.73638 10.930287 9.333334 11.666667 9.333334 Z"/>
</svg>
